<svg width="64" height="64" viewBox="0 0 64 64" fill="none" xmlns="http://www.w3.org/2000/svg">
<path d="M34.8463 29.5149L32.4414 38.7753L38.896 64C40.2819 61.2025 38.5693 47.977 36.4199 33.2817C36.3081 31.8932 35.7498 30.5871 34.8463 29.5149Z" fill="#121212"/>
<path d="M20.5023 1.08976C21.9041 0.77162 24.8354 0.736349 25.0919 5.87893C25.0545 5.88894 25.0168 5.89718 24.9794 5.90789C22.1073 6.72176 20.3377 9.47765 20.9274 12.2086C21.498 14.851 24.0076 16.6379 26.7718 16.6107L29.7887 28.4006C30.1111 28.1168 30.4605 27.8552 30.8363 27.6194L31.6642 27.0999L30.6316 26.4473L28.0768 16.4635C31.2476 15.7656 33.2079 12.8158 32.4554 9.87511C31.7934 7.28838 29.253 5.57079 26.4932 5.66959C26.2678 3.95305 25.2068 -0.549385 20.2915 0.0554911C20.0211 0.0886566 19.8162 0.300459 19.8034 0.553149C19.7858 0.903931 20.1347 1.17312 20.5023 1.08976ZM31.3072 10.128C31.9092 12.4806 30.3409 14.8403 27.8043 15.3988C25.2677 15.9572 22.7235 14.5025 22.1215 12.15C21.5194 9.79755 23.0877 7.43771 25.6243 6.87934C28.161 6.32097 30.7051 7.77533 31.3072 10.128Z" fill="#121212"/>
<path d="M26.3941 36.9451C26.5818 35.7104 26.7731 34.4636 26.9655 33.2104C26.9753 33.093 26.9903 32.9766 27.0058 32.8605L26.5133 33.4573C26.4128 33.579 26.227 33.6066 26.0908 33.5199C25.9544 33.4332 25.915 33.2626 26.0011 33.1317L27.7645 30.4539C28.0108 29.9768 28.3083 29.5237 28.6549 29.1019L28.9196 28.7L28.7313 27.9648L24.9959 32.493C24.8953 32.6148 24.7096 32.6423 24.5734 32.5556H24.5732C24.437 32.469 24.3977 32.2984 24.4837 32.1675L27.7463 27.213C27.8245 27.0944 27.7889 26.9398 27.6652 26.8612C27.5414 26.7826 27.3732 26.8075 27.2822 26.9179L23.4783 31.5286C23.3779 31.6503 23.1923 31.6779 23.0558 31.5912C22.9194 31.5045 22.8801 31.334 22.9662 31.2032L26.2289 26.2488C26.3071 26.1301 26.2713 25.9755 26.1476 25.8969C26.0238 25.8183 25.8556 25.8432 25.7646 25.9536L21.9609 30.5643C21.8605 30.6861 21.6749 30.7136 21.5384 30.627C21.402 30.5403 21.3627 30.3697 21.4488 30.2388L24.7115 25.2843C24.7897 25.1657 24.7541 25.0111 24.6304 24.9325C24.5068 24.8539 24.3384 24.8788 24.2474 24.9892L20.4437 29.5999C20.3433 29.7217 20.1575 29.7492 20.0211 29.6625C19.8846 29.5758 19.8453 29.4053 19.9314 29.2744L23.1941 24.3197C23.2723 24.2011 23.2367 24.0465 23.1128 23.9681C22.9892 23.8894 22.821 23.9144 22.7298 24.0247L18.9261 28.6354C18.8255 28.7572 18.6399 28.7848 18.5035 28.6981C18.3671 28.6114 18.3279 28.4408 18.414 28.3099L21.6766 23.3555C21.7547 23.2368 21.7191 23.0822 21.5954 23.0036C21.4718 22.925 21.3035 22.9499 21.2123 23.0605L17.4086 27.6712C17.3081 27.793 17.1225 27.8205 16.9861 27.7338C16.8497 27.6471 16.8103 27.4766 16.8964 27.3457L20.1592 22.3912C20.2373 22.2726 20.2015 22.118 20.078 22.0394C19.9543 21.9608 19.7861 21.9857 19.6949 22.0962L15.8912 26.7069C15.7907 26.8287 15.6051 26.8563 15.4687 26.7696C15.3323 26.6829 15.2929 26.5123 15.379 26.3814L18.6418 21.4269C18.7199 21.3083 18.6843 21.1537 18.5606 21.0751C18.4369 20.9965 18.2687 21.0216 18.1777 21.132L14.3734 25.7423C14.2729 25.8641 14.0871 25.8917 13.9507 25.805C13.8143 25.7183 13.775 25.5477 13.861 25.4168L17.1238 20.4623C17.202 20.3437 17.1662 20.1891 17.0425 20.1105C16.9189 20.0319 16.7505 20.0568 16.6595 20.1674L12.8558 24.7781C12.7552 24.8999 12.5695 24.9274 12.4331 24.8407C12.2967 24.754 12.2574 24.5835 12.3435 24.4526L15.6062 19.4981C15.6846 19.3795 15.6488 19.2249 15.5251 19.1462C15.4015 19.0676 15.2331 19.0926 15.1421 19.2031L11.3384 23.8136C11.238 23.9354 11.0522 23.9631 10.9159 23.8763C10.7795 23.7896 10.74 23.619 10.8263 23.4881L14.089 18.5337C14.1672 18.415 14.1314 18.2604 14.0079 18.1818C13.8841 18.1032 13.7159 18.1281 13.6247 18.2385L9.82102 22.8492C9.72056 22.971 9.53496 22.9985 9.39854 22.9119C9.26213 22.8252 9.22277 22.6546 9.30885 22.5237L12.5716 17.5692C12.6498 17.4506 12.6142 17.296 12.4905 17.2174C12.3667 17.1388 12.1985 17.1637 12.1075 17.2741L8.30363 21.8848C8.20317 22.0066 8.01756 22.0343 7.88114 21.9474C7.74473 21.8607 7.70538 21.6902 7.79146 21.5594L11.0542 16.605C11.1324 16.4863 11.0966 16.3316 10.9729 16.2531C10.8491 16.1745 10.6809 16.1994 10.5898 16.3098L6.78605 20.9205C6.68558 21.0423 6.49998 21.0698 6.36356 20.9832C6.22715 20.8965 6.18779 20.7259 6.27388 20.595L9.53665 15.6405C9.61479 15.5219 9.57923 15.3671 9.45549 15.2887C9.33194 15.2101 9.16355 15.235 9.07254 15.3454L5.26884 19.9561C5.16838 20.0779 4.98258 20.1054 4.84617 20.0187C4.70976 19.932 4.6704 19.7615 4.75649 19.6306L8.01926 14.6761C8.0974 14.5575 8.06165 14.4029 7.93791 14.3243C7.81436 14.2458 7.64597 14.2707 7.55496 14.3811L3.75126 18.9918C3.65079 19.1136 3.465 19.1412 3.32859 19.0545C3.19217 18.9678 3.15282 18.7972 3.23891 18.6663L6.50168 13.7118C6.57982 13.5932 6.54406 13.4386 6.42051 13.36L6.40443 13.3498C6.30018 13.2835 6.1615 13.2893 6.06463 13.3647C5.02421 14.1744 -0.573501 18.7132 0.0480249 22.1743C0.733122 25.988 17.9542 37.1918 25.7154 36.9265C25.94 36.9186 26.1667 36.927 26.3941 36.9451Z" fill="#EF7B58"/>
<path d="M47.4068 43.4173C45.8851 42.15 42.1097 39.6796 37.9609 37.4984C38.4233 40.7532 38.8296 43.739 39.1677 46.4405C39.9271 47.3859 40.5965 48.2756 41.1424 49.0312C42.375 50.7385 44.877 51.22 46.7109 50.0671C48.1362 49.1709 49.2576 47.699 48.6285 45.3088C48.4362 44.5785 48.01 43.9195 47.4068 43.4173ZM45.5165 47.2935C45.1197 47.8308 44.3287 47.9678 43.7492 47.5997C43.17 47.2315 43.0223 46.4978 43.4192 45.9605C43.8161 45.4232 44.6072 45.2862 45.1865 45.6543C45.7655 46.0225 45.9134 46.7562 45.5165 47.2935Z" fill="#EF7B58"/>
<path d="M57.9342 13.3646C57.8371 13.2892 57.6986 13.2834 57.5942 13.3497L57.5781 13.3599C57.4546 13.4385 57.4188 13.5931 57.497 13.7117L60.7597 18.6662C60.8458 18.7971 60.8065 18.9677 60.6701 19.0544C60.5334 19.141 60.3478 19.1135 60.2476 18.9917L56.4439 14.381C56.3529 14.2706 56.1843 14.2457 56.0607 14.3241C55.9372 14.4028 55.9014 14.5574 55.9794 14.676L59.2422 19.6304C59.3284 19.7614 59.2891 19.9319 59.1525 20.0186C59.0161 20.1053 58.8304 20.0777 58.73 19.956L54.9263 15.3453C54.8351 15.2349 54.6669 15.21 54.5432 15.2886C54.4196 15.367 54.3838 15.5218 54.462 15.6404L57.7246 20.5949C57.8107 20.7258 57.7715 20.8964 57.6351 20.983H57.6349C57.4985 21.0697 57.3129 21.0422 57.2124 20.9204L53.4087 16.3097C53.3177 16.1993 53.1493 16.1744 53.0258 16.253C52.9022 16.3314 52.8663 16.4862 52.9446 16.6048L56.2072 21.5593C56.2934 21.6902 56.2541 21.8608 56.1175 21.9473C55.9811 22.0342 55.7955 22.0064 55.695 21.8846L51.8913 17.2739C51.8003 17.1636 51.6319 17.1386 51.5084 17.2173C51.3846 17.2959 51.3489 17.4505 51.427 17.5691L54.6898 22.5236C54.7761 22.6545 54.7365 22.825 54.6001 22.9117C54.4637 22.9984 54.2781 22.9709 54.1776 22.8491L50.3739 18.2384C50.2829 18.128 50.1145 18.1031 49.991 18.1817C49.8674 18.2603 49.8317 18.4149 49.9096 18.5335L53.1724 23.488C53.2585 23.6189 53.2191 23.7895 53.0827 23.8762C52.9461 23.9628 52.7605 23.9353 52.66 23.8135L48.8563 19.203C48.7653 19.0926 48.5969 19.0677 48.4734 19.1461C48.3496 19.2247 48.3139 19.3793 48.392 19.498L51.6548 24.4524C51.7409 24.5833 51.7015 24.7539 51.5651 24.8406H51.5649C51.4285 24.9273 51.2431 24.8997 51.1426 24.7779L47.3389 20.1672C47.2479 20.0569 47.0794 20.0319 46.9558 20.1104C46.8323 20.1888 46.7965 20.3436 46.8746 20.4622L50.1372 25.4167C50.2235 25.5476 50.1841 25.7182 50.0477 25.8048C49.9113 25.8915 49.7255 25.864 49.6251 25.7422L45.8213 21.1315C45.7303 21.0211 45.562 20.9962 45.4384 21.0746C45.3149 21.1531 45.2791 21.3078 45.3572 21.4265L48.62 26.3809C48.7061 26.5119 48.6666 26.6824 48.5303 26.7691C48.3937 26.8558 48.2081 26.8282 48.1078 26.7065L44.304 22.0958C44.2131 21.9854 44.0446 21.9605 43.921 22.0389C43.7975 22.1173 43.7617 22.2721 43.8397 22.3907L47.1024 27.3452C47.1887 27.4761 47.1494 27.6467 47.0127 27.7334C46.8763 27.82 46.6907 27.7925 46.5903 27.6707L42.7866 23.06C42.6956 22.9496 42.5272 22.9247 42.4036 23.0032C42.2801 23.0818 42.2443 23.2364 42.3223 23.355L45.585 28.3095C45.6711 28.4404 45.6318 28.6109 45.4954 28.6976C45.3589 28.7843 45.1733 28.7568 45.0729 28.635L41.2692 24.0243C41.1782 23.9139 41.0098 23.889 40.8862 23.9676C40.7627 24.0462 40.7267 24.2008 40.8051 24.3192L44.0676 29.2739C44.1537 29.4048 44.1144 29.5754 43.978 29.662C43.8416 29.7487 43.6557 29.7212 43.5555 29.5994L39.7516 24.9887C39.6608 24.8783 39.4922 24.8534 39.3686 24.932C39.2451 25.0106 39.2093 25.1652 39.2875 25.2839L42.5502 30.2383C42.6363 30.3692 42.597 30.5398 42.4606 30.6265C42.3242 30.7132 42.1386 30.6856 42.0381 30.5638L38.2344 25.9531C38.1434 25.8428 37.975 25.8178 37.8512 25.8964C37.7277 25.9751 37.6919 26.1297 37.7701 26.2483L41.0327 31.2028C41.1189 31.3337 41.0796 31.5042 40.943 31.5907C40.8066 31.6774 40.621 31.6499 40.5205 31.5281L36.7168 26.9174C36.6256 26.807 36.4574 26.7821 36.3338 26.8607C36.2101 26.9393 36.1744 27.0939 36.2525 27.2125L39.5153 32.167C39.6012 32.2979 39.562 32.4685 39.4256 32.5552C39.289 32.6419 39.1034 32.6143 39.0031 32.4925L35.5222 28.2733L35.3926 28.772L35.575 28.9886C36.2568 29.798 36.7501 30.7128 37.0452 31.685L37.9977 33.1314C38.084 33.2623 38.0446 33.4329 37.908 33.5196C37.7716 33.6063 37.586 33.5787 37.4855 33.457L37.3544 33.298C37.537 34.5458 37.7118 35.7557 37.88 36.9341C38.0147 36.9292 38.15 36.9213 38.2839 36.9258C46.0452 37.1911 63.2665 25.9873 63.9514 22.1737C64.5723 18.713 58.9744 14.1743 57.9342 13.3646Z" fill="#EF7B58"/>
<path d="M26.3328 37.3448C22.0689 39.5627 18.1498 42.1202 16.5919 43.4173C15.9889 43.9195 15.5627 44.5784 15.3704 45.3086C14.7414 47.699 15.8629 49.1707 17.288 50.0669C19.1217 51.2198 21.6237 50.7383 22.8566 49.031C23.4567 48.1998 24.2033 47.2085 25.0591 46.1565C25.4331 43.3562 25.8707 40.3906 26.3328 37.3448ZM20.2496 47.5997C19.6702 47.9678 18.879 47.8306 18.4822 47.2934C18.0855 46.7561 18.2333 46.0225 18.8124 45.6543C19.3917 45.2861 20.183 45.4234 20.5797 45.9605C20.9767 46.4978 20.8287 47.2315 20.2496 47.5997Z" fill="#EF7B58"/>
<path d="M42.7106 6.31005C39.9038 5.50513 37.0083 6.72541 35.7284 9.00014L33.6893 8.65796C33.4349 8.61514 33.1844 8.74956 33.0975 8.9754C33.018 9.18141 33.0952 9.41094 33.2871 9.53851C33.7618 9.85437 34.6421 10.4331 35.1257 10.7084C34.6637 13.4912 36.5707 16.1848 39.5754 16.856L33.6986 26.4733L31.1614 28.0649C29.2681 29.2527 28.0615 31.1759 27.8835 33.2894C25.8755 46.3733 23.8641 59.4654 25.2966 64L34.8976 27.0306L40.8797 17.0072C43.6438 17.0432 46.1598 15.2639 46.74 12.6234C47.3394 9.89421 45.5799 7.13269 42.7106 6.31005ZM45.546 12.5608C44.9355 14.9115 42.3862 16.3581 39.8514 15.7919C37.3169 15.2256 35.7571 12.861 36.3677 10.5103C36.9782 8.1596 39.5277 6.71295 42.0622 7.27904C44.5968 7.84532 46.1566 10.2101 45.546 12.5608Z" fill="#033651"/>
</svg>
