<svg width="13" height="42" viewBox="0 0 13 42" fill="none" xmlns="http://www.w3.org/2000/svg">
<path d="M6 1.25673L3.58177 1.25672C3.20017 1.25672 2.82481 1.35354 2.49082 1.53812V1.53812C1.2184 2.24135 0.933938 3.94704 1.90929 5.02513L2.21941 5.36792C2.71643 5.9173 3.42268 6.23074 4.16352 6.23074H6H8.61563C9.18853 6.23074 9.7448 6.42332 10.1951 6.77754L10.2939 6.85528C11.6213 7.89958 11.5288 9.93945 10.1122 10.8592V10.8592C9.71264 11.1186 9.24647 11.2567 8.77009 11.2567H5.87655" stroke="black"/>
<path d="M6 11.2567L3.58177 11.2567C3.20017 11.2567 2.82481 11.3535 2.49082 11.5381V11.5381C1.2184 12.2414 0.933938 13.947 1.90929 15.0251L2.21941 15.3679C2.71643 15.9173 3.42268 16.2307 4.16352 16.2307H6H8.61563C9.18853 16.2307 9.7448 16.4233 10.1951 16.7775L10.2939 16.8553C11.6213 17.8996 11.5288 19.9394 10.1122 20.8592V20.8592C9.71264 21.1186 9.24647 21.2567 8.77009 21.2567H5.87655" stroke="black"/>
<path d="M6 21.2567L3.58177 21.2567C3.20017 21.2567 2.82481 21.3535 2.49082 21.5381V21.5381C1.2184 22.2414 0.933938 23.947 1.90929 25.0251L2.21941 25.3679C2.71643 25.9173 3.42268 26.2307 4.16352 26.2307H6H8.61563C9.18853 26.2307 9.7448 26.4233 10.1951 26.7775L10.2939 26.8553C11.6213 27.8996 11.5288 29.9394 10.1122 30.8592V30.8592C9.71264 31.1186 9.24647 31.2567 8.77009 31.2567H5.87655" stroke="black"/>
<path d="M6 31.2567L3.58177 31.2567C3.20017 31.2567 2.82481 31.3535 2.49082 31.5381V31.5381C1.2184 32.2414 0.933938 33.947 1.90929 35.0251L2.21941 35.3679C2.71643 35.9173 3.42268 36.2307 4.16352 36.2307H6H8.61563C9.18853 36.2307 9.7448 36.4233 10.1951 36.7775L10.2939 36.8553C11.6213 37.8996 11.5288 39.9394 10.1122 40.8592V40.8592C9.71264 41.1186 9.24647 41.2567 8.77009 41.2567H5.87655" stroke="black"/>
</svg>
