<svg width="33" height="32" viewBox="0 0 33 32" fill="none" xmlns="http://www.w3.org/2000/svg">
<path fillRule="evenodd" clipRule="evenodd" d="M4.28161 25.5934V32L10.8011 25.5956H24.3085C26.0738 25.5956 27.2132 24.4548 27.2132 22.6909V7.71919C27.2132 6.16876 25.9637 5 24.3085 5H2.90476C1.27542 5 0 6.19463 0 7.71919V22.6888C0 24.5066 1.08551 25.5934 2.90476 25.5934H4.28161ZM1.69849 7.85523C1.69849 7.0952 2.37942 6.69629 3.05398 6.69629V6.69839H24.1587C24.8333 6.69839 25.5142 7.0973 25.5142 7.85733V22.4344C25.5142 23.333 25.0716 23.7718 24.1587 23.7718H10.223L5.92029 27.9436V23.7697H3.05398C2.09215 23.7697 1.69849 23.3834 1.69849 22.4323V7.85523Z" fill="#2F2F2F"/>
<rect x="20" width="13" height="13" rx="6.5" fill="#EF7B58"/>
<path d="M28.6929 9.33203V10H24.5049V9.41553L26.6011 7.08203C26.8589 6.79492 27.0581 6.55176 27.1987 6.35254C27.3423 6.15039 27.4419 5.97021 27.4976 5.81201C27.5562 5.65088 27.5854 5.48682 27.5854 5.31982C27.5854 5.10889 27.5415 4.91846 27.4536 4.74854C27.3687 4.57568 27.2427 4.43799 27.0757 4.33545C26.9087 4.23291 26.7065 4.18164 26.4692 4.18164C26.1851 4.18164 25.9478 4.2373 25.7573 4.34863C25.5698 4.45703 25.4292 4.60938 25.3354 4.80566C25.2417 5.00195 25.1948 5.22754 25.1948 5.48242H24.3818C24.3818 5.12207 24.4609 4.79248 24.6191 4.49365C24.7773 4.19482 25.0117 3.95752 25.3223 3.78174C25.6328 3.60303 26.0151 3.51367 26.4692 3.51367C26.8735 3.51367 27.2192 3.58545 27.5063 3.729C27.7935 3.86963 28.0132 4.06885 28.1655 4.32666C28.3208 4.58154 28.3984 4.88037 28.3984 5.22314C28.3984 5.41064 28.3662 5.60107 28.3018 5.79443C28.2402 5.98486 28.1538 6.17529 28.0425 6.36572C27.9341 6.55615 27.8066 6.74365 27.6602 6.92822C27.5166 7.11279 27.3628 7.29443 27.1987 7.47314L25.4849 9.33203H28.6929Z" fill="white"/>
</svg>
