<svg width="18" height="20" viewBox="0 0 18 20" fill="none" xmlns="http://www.w3.org/2000/svg">
<path d="M16.8 8.8H15.1V3.2C15.1 1.4325 13.6675 0 11.9 0H5.7C3.9325 0 2.5 1.4325 2.5 3.2V8.8H0.8C0.3575 8.8 0 9.1575 0 9.6V19.2C0 19.6425 0.3575 20 0.8 20H16.8C17.2425 20 17.6 19.6425 17.6 19.2V9.6C17.6 9.1575 17.2425 8.8 16.8 8.8ZM9.5 14.725V16.05C9.5 16.16 9.41 16.25 9.3 16.25H8.3C8.19 16.25 8.1 16.16 8.1 16.05V14.725C7.89363 14.5768 7.7396 14.367 7.66007 14.1257C7.58055 13.8845 7.57963 13.6242 7.65745 13.3823C7.73528 13.1405 7.88783 12.9296 8.09314 12.78C8.29846 12.6304 8.54595 12.5498 8.8 12.5498C9.05405 12.5498 9.30154 12.6304 9.50686 12.78C9.71217 12.9296 9.86473 13.1405 9.94255 13.3823C10.0204 13.6242 10.0195 13.8845 9.93993 14.1257C9.8604 14.367 9.70637 14.5768 9.5 14.725ZM13.3 8.8H4.3V3.2C4.3 2.4275 4.9275 1.8 5.7 1.8H11.9C12.6725 1.8 13.3 2.4275 13.3 3.2V8.8Z" fill="#308B97"/>
</svg>
